<svg version="1" xmlns="http://www.w3.org/2000/svg" width="346.667" height="346.667" viewBox="0 0 260.000000 260.000000"><path d="M41 1.6C25.6 4.9 12.9 14.4 6.5 27.4 0 40.6 0 39.7 0 130s0 89.4 6.5 102.6c6.5 13.2 19.1 22.6 35 25.9 10.4 2.2 166.6 2.2 177 0 21-4.4 35.6-19 40-40 2.2-10.4 2.2-166.6 0-177-4.4-21-19-35.6-40-40C208.4-.6 50.9-.6 41 1.6zM149.6 23c26.3 4.2 53.7 22.2 70.2 46.2 20.6 29.9 23.9 70.9 8.7 105.5-6.7 15.2-23.9 35.1-38.5 44.7-37.2 24.5-84.4 24.6-120.5.3-16.9-11.4-31.8-29.1-39.9-47.4-9.9-22.6-11.2-51.7-3.5-76.2 8.3-26.1 30-51.1 55.6-64 19.2-9.6 43.9-12.9 67.9-9.1z"/><path d="M113.8 44c-6.1 1.1-17.1 4.7-22.3 7.3C78 58 63.8 71.1 55.3 84.7c-17.4 27.9-15.9 69.1 3.5 95.1 17.7 23.8 41.9 36.2 70.7 36.2 23.4 0 42.3-7.5 59.3-23.5 16.6-15.6 25.6-34.6 26.9-57 1.5-26.6-6.5-48.2-24.7-66.6-11.8-12-24-19.4-38.5-23.4-6.9-1.9-31.4-2.9-38.7-1.5zm21 59.6l.2 28.2 3.8 2.4c2 1.3 12.8 7.8 24 14.3 11.1 6.6 20.2 12.4 20.2 12.9 0 1.5-7.1 12.6-8.1 12.6-.5 0-6.2-3.3-12.6-7.3-6.5-3.9-18.9-11.5-27.5-16.7l-15.8-9.5V74.9l7.8.3 7.7.3.3 28.1z"/></svg>